<svg xmlns="http://www.w3.org/2000/svg" xmlns:xlink="http://www.w3.org/1999/xlink" width="114" height="46" viewBox="0 0 114 46">
  <defs>
    <style>
      .cls-1, .cls-3 {
        fill: none;
      }

      .cls-2 {
        opacity: 0.28;
        clip-path: url(#clip-path);
      }

      .cls-3 {
        stroke: #ebebeb;
        stroke-width: 2px;
      }
    </style>
    <clipPath id="clip-path">
      <path id="Union_1" data-name="Union 1" class="cls-1" d="M98.014,46V19.827L88.76,46l-.192,0L79.146,19.827V46H63.333V36.594h6.2V9.521H63.159V.115H81.153l7.472,20.98L96,.115h17.822V9.521h-6.2V36.594H114V46ZM25.334,46V36.594h6.377V9.521H25.334V.115H49.448a12.007,12.007,0,0,1,7.508,3.139l2.538,2.97c.719.719,1.131,3.135,1.131,3.135l.263,2.966a10.753,10.753,0,0,1-.61,3.144l-1.314,2.966a10.567,10.567,0,0,1-2.708,3.139V24.54a10.567,10.567,0,0,1,2.708,3.139l1.314,2.966a10.753,10.753,0,0,1,.61,3.144l-.263,2.966s-.412,2.416-1.131,3.135l-2.538,2.971A12.008,12.008,0,0,1,49.448,46Zm15.986-9.406h9.347V27.875H41.321Zm0-18.354h9.347V9.521H41.321ZM.174,46V36.594h6.2V9.521H0V0H22.19V9.521h-6.2V36.594h6.377V46Z" transform="translate(-0.167)"/>
    </clipPath>
  </defs>
  <g id="IBM_logo" class="cls-2" transform="translate(0.167)">
    <path id="Path_79" data-name="Path 79" class="cls-3" d="M0,13.683H117.421v6.068H0M0,25.82H111.151v6.07H0v6.067H111.151v6.067H0m0,6.07H117.421v6.07H0" transform="translate(0 -12.279)"/>
  </g>
</svg>
