<svg xmlns="http://www.w3.org/2000/svg" width="108.918" height="67.795" viewBox="0 0 108.918 67.795">
  <defs>
    <style>
      .cls-1 {
        opacity: 0.28;
      }

      .cls-2, .cls-3, .cls-4 {
        fill: #ebebeb;
      }

      .cls-2, .cls-3 {
        fill-rule: evenodd;
      }

      .cls-2 {
        opacity: 0;
      }
    </style>
  </defs>
  <g id="g3177" class="cls-1">
    <path id="rect3062" class="cls-2" d="M17.981,14.58H126.9V82.375H17.981Z" transform="translate(-17.981 -14.58)"/>
    <path id="path3065" class="cls-3" d="M120.569,132.887H221.455v14.261H120.569Z" transform="translate(-116.891 -128.645)"/>
    <path id="path3069" class="cls-3" d="M120.569,1389.74H221.455V1404H120.569Z" transform="translate(-116.891 -1340.431)"/>
    <path id="path3071" class="cls-3" d="M476.8,631.781v.007h-4.147v.7c3.237.1,4.2,1.626,4.561,3.4l1.908,18.924H485.4l13.416-23.034h-6.279l-8.063,13.844-1.4-13.844Z" transform="translate(-456.353 -609.65)"/>
    <path id="rect3086" class="cls-3" d="M1094.641,631.4h6.095l-7.475,23.056h-6.094Z" transform="translate(-1048.829 -609.284)"/>
    <path id="path3089" class="cls-3" d="M1915.128,644.219l-11.787,22.6h6.612l1.72-3.45h7.676l.263,3.45h6.095l-1.724-22.6h-8.854Zm3.2,5.8.729,9.554h-5.494Z" transform="translate(-1835.738 -621.642)"/>
    <path id="path3105" class="cls-4" d="M1383.6,629.535c.915-3.656,3.917-6.152,9.027-6.152a14.229,14.229,0,0,1,8.337,2.99l-3.622,3.795s-2.677-2.07-4.255-2.07c-2.085,0-3.027.762-3.22,2.012-.384,2.494,8.5,4.021,8.222,9.832-.188,3.881-4.2,7.647-8.8,7.647-6.887,0-10.292-2.76-10.292-2.76l3.1-4.427s3.112,2.493,6.037,2.357c1.973-.091,3.494-.848,3.392-2.185-.231-3.031-9.59-4.422-7.934-11.039Z" transform="translate(-1330.198 -601.553)"/>
    <path id="path3151" class="cls-4" d="M2513.117,644.2a1.3,1.3,0,0,0-.624.164,1.169,1.169,0,0,0-.474.47,1.268,1.268,0,0,0,0,1.266,1.181,1.181,0,0,0,.469.47,1.272,1.272,0,0,0,1.261,0,1.179,1.179,0,0,0,.468-.47,1.275,1.275,0,0,0,0-1.266,1.166,1.166,0,0,0-.474-.47A1.3,1.3,0,0,0,2513.117,644.2Zm0,.211a1.076,1.076,0,0,1,.518.136.975.975,0,0,1,.4.392,1.062,1.062,0,0,1,0,1.055.991.991,0,0,1-.392.392,1.057,1.057,0,0,1-1.051,0,1,1,0,0,1-.392-.392,1.058,1.058,0,0,1,0-1.055.981.981,0,0,1,.4-.392A1.081,1.081,0,0,1,2513.117,644.409Z" transform="translate(-2422.426 -621.622)"/>
    <path id="path3147" class="cls-4" d="M2532.57,660.115v1.495h.221v-.635h.13a.267.267,0,0,1,.177.051,1.211,1.211,0,0,1,.231.349l.121.235h.27l-.167-.292a1.7,1.7,0,0,0-.2-.3.375.375,0,0,0-.117-.079.408.408,0,0,0,.284-.137.417.417,0,0,0,.107-.285.409.409,0,0,0-.065-.218.345.345,0,0,0-.171-.146,1.058,1.058,0,0,0-.349-.042Zm.221.2h.251a.65.65,0,0,1,.223.025.2.2,0,0,1,.094.079.23.23,0,0,1-.036.284.4.4,0,0,1-.263.063h-.268Z" transform="translate(-2442.404 -636.968)"/>
    <path id="path3159" class="cls-4" d="M2839.037,1692.39a1.3,1.3,0,0,0-.624.164,1.173,1.173,0,0,0-.474.47,1.268,1.268,0,0,0,0,1.266,1.184,1.184,0,0,0,.469.47,1.272,1.272,0,0,0,1.261,0,1.175,1.175,0,0,0,.468-.47,1.276,1.276,0,0,0,0-1.266,1.167,1.167,0,0,0-.474-.47A1.3,1.3,0,0,0,2839.037,1692.39Zm0,.211a1.076,1.076,0,0,1,.518.136.977.977,0,0,1,.4.392,1.077,1.077,0,0,1,.142.531,1.062,1.062,0,0,1-.139.525.99.99,0,0,1-.392.392,1.059,1.059,0,0,1-1.051,0,1,1,0,0,1-.392-.392,1.059,1.059,0,0,1,0-1.055.983.983,0,0,1,.4-.392A1.081,1.081,0,0,1,2839.037,1692.6Z" transform="translate(-2736.66 -1632.229)"/>
    <path id="path3161" class="cls-4" d="M2858.49,1708.31v1.495h.221v-.635h.13a.266.266,0,0,1,.177.051,1.215,1.215,0,0,1,.232.349l.121.235h.269l-.167-.292a1.7,1.7,0,0,0-.2-.3.373.373,0,0,0-.116-.079.41.41,0,0,0,.284-.137.417.417,0,0,0,.107-.285.405.405,0,0,0-.065-.218.343.343,0,0,0-.171-.146,1.06,1.06,0,0,0-.349-.042Zm.221.2h.251a.648.648,0,0,1,.222.025.2.2,0,0,1,.094.079.23.23,0,0,1-.036.284.4.4,0,0,1-.262.063h-.268v-.451Z" transform="translate(-2756.638 -1647.578)"/>
  </g>
</svg>
