<svg xmlns="http://www.w3.org/2000/svg" width="87.798" height="87.798" viewBox="0 0 87.798 87.798">
  <defs>
    <style>
      .cls-1 {
        opacity: 0.28;
      }

      .cls-2 {
        fill: none;
      }

      .cls-2, .cls-3 {
        fill-rule: evenodd;
      }

      .cls-3 {
        fill: #ebebeb;
      }
    </style>
  </defs>
  <g id="nationale-lotterij" class="cls-1">
    <path id="Path_82" data-name="Path 82" class="cls-2" d="M0,0H87.8V87.8H0Z"/>
    <path id="Path_83" data-name="Path 83" class="cls-3" d="M55.72,58.443a8.344,8.344,0,1,1,8.344,8.344A8.344,8.344,0,0,1,55.72,58.443Zm8.34,13.129c9.328-.731,15.31-9.35,11.97-18.126-3.623-9.524-13.12-8.323-13.12-8.323a6.432,6.432,0,0,1-6.432-6.432c0-3.552,3.276-6.471,7.585-7.417,3.456-.759,16.941.169,20.144,16.352,0,0,3.19,13.4-11.548,21.858,0,0-.215.187-.141.328s.338.077.338.077a23.853,23.853,0,1,0-8.794,1.675Zm8.949,5.883,2.475-.011.038,8.68,2.639-.011.006,1.489-5.064.022-.094-10.17Zm8.016,2.879c1.058,0,3.05.716,3.05,3.689,0,3.3-2.257,3.7-2.958,3.7s-2.988-.514-3.019-3.72S80.355,80.333,81.025,80.333Zm-.592,3.689c0,1.6.2,2.537.654,2.537s.653-.545.653-2.537-.312-2.485-.669-2.475c-.561.016-.638.872-.638,2.475ZM46.972,80.336c1.037,0,2.989.7,2.989,3.616,0,3.234-2.211,3.63-2.9,3.63s-2.928-.5-2.959-3.645S46.315,80.336,46.972,80.336Zm-.58,3.615c0,1.571.2,2.487.641,2.487s.64-.534.64-2.487-.305-2.435-.656-2.425C46.468,81.542,46.392,82.381,46.392,83.952Zm38.057-4.832,2.117-1.385.011,2.647,1.327-.006,0,1.173-1.266.005.019,4.243s.009.607.261.685c.452.14,1.2-.778,1.2-.778l.015,1.432a2.4,2.4,0,0,1-1.619.576A2.2,2.2,0,0,1,84.5,86.155c-.065-.462-.047-7.036-.047-7.036Zm-47.062.149,2.074-1.357.011,2.594,1.3-.006.005,1.149-1.241.005.018,4.159s.009.594.256.671c.442.137,1.175-.763,1.175-.763l.015,1.4a2.351,2.351,0,0,1-1.586.564,2.158,2.158,0,0,1-1.983-1.525c-.063-.453-.046-6.894-.046-6.894Zm53.506.769c1-.028,2.428.062,3.05,2.63l-3.175,2.4s.015,1.619,1.151,1.385a3.349,3.349,0,0,0,1.962-1.79l-.023,1.977a3.02,3.02,0,0,1-2.405,1.074c-1.634,0-3.206-1.339-3.315-3.845a3.474,3.474,0,0,1,2.755-3.828Zm-.343,3.611,1.151-.763c-.124-1.307-.218-1.727-.715-1.665-.7.088-.436,2.428-.436,2.428ZM67.99,79.981c.976-.028,2.379.061,2.989,2.577l-3.111,2.349s.015,1.586,1.128,1.357a3.279,3.279,0,0,0,1.922-1.754L70.9,86.447A2.96,2.96,0,0,1,68.539,87.5c-1.6,0-3.142-1.312-3.249-3.768a3.4,3.4,0,0,1,2.7-3.751Zm-.335,3.539,1.128-.748c-.122-1.281-.214-1.693-.7-1.632-.691.086-.427,2.379-.427,2.379Zm26.739-2.1,2.195-1.339.046.7a2.058,2.058,0,0,1,2.086-.483v2.428s-.778-.953-1.588-.5a1.08,1.08,0,0,0-.513.98c-.016.3.019,4.264.019,4.264l-2.26.01.015-6.063Zm5.933-1.559a1.227,1.227,0,1,0-1.211-1.222A1.217,1.217,0,0,0,100.327,79.865Zm-1.11,1.45,2.164-1.307.032,7.48-2.134.01Zm3.863-1.47a1.227,1.227,0,1,0-1.21-1.222A1.217,1.217,0,0,0,103.081,79.845Z" transform="translate(-20.356 -13.005)"/>
    <path id="Path_84" data-name="Path 84" class="cls-3" d="M86.307,150.96l-.062-6.183,2.164-1.307.033,7.469a2.787,2.787,0,0,1-.59,1.915,2.41,2.41,0,0,1-2.306.412l-.02-.988a1,1,0,0,0,.679-.433,1.972,1.972,0,0,0,.1-.885Zm-59.542-7.45a1.2,1.2,0,1,0-1.186-1.2A1.192,1.192,0,0,0,26.765,143.511Zm-1.088,1.422,2.12-1.282.032,7.332-2.091.009-.061-6.059ZM8.5,140.479l2.2-.01,2.9,5.18-.022-5.171,1.411-.005.046,10.509-1.311.005-3.737-6.452.028,6.447-1.432.006L8.5,140.479Zm7.413,5.72-.007-1.709a3.488,3.488,0,0,1,2.478-.793c1.724,0,2.364.916,2.471,1.327a6.11,6.11,0,0,1,.122,1.724c-.015.9-.015,3.539-.015,3.539s.061.543.336.7l-2.273.01-.29-.325a1.993,1.993,0,0,1-1.236.457,2.223,2.223,0,0,1-2.15-2.379,2.351,2.351,0,0,1,2.288-2.517c.915,0,1.022.153,1.022.153l.011-.992a.527.527,0,0,0-.408-.427A3.063,3.063,0,0,0,15.917,146.2Zm1.709,2.318c-.015.488.015,1.159.549,1.159s.564-.808.564-1.144c0-.793-.122-.992-.5-1.007C17.729,147.505,17.64,148.028,17.625,148.517Zm23.506-2.339-.008-1.709a3.491,3.491,0,0,1,2.478-.793c1.724,0,2.364.915,2.471,1.327a6.126,6.126,0,0,1,.122,1.724c-.015.9-.015,3.539-.015,3.539s.061.543.335.7l-2.272.01-.29-.325a1.992,1.992,0,0,1-1.235.458,2.223,2.223,0,0,1-2.151-2.38,2.351,2.351,0,0,1,2.288-2.516c.915,0,1.022.152,1.022.152l.011-.991a.527.527,0,0,0-.408-.427,3.061,3.061,0,0,0-2.348,1.236Zm1.708,2.318c-.015.488.015,1.159.549,1.159s.564-.808.564-1.144c0-.793-.122-.992-.5-1.007C42.942,147.484,42.854,148.008,42.839,148.5ZM34.6,145.019l2.217-1.342.021.783a1.711,1.711,0,0,1,1.566-.722,1.658,1.658,0,0,1,1.648,1.627c0,.569.039,5.618.039,5.618l-2.176.01-.009-4.692s-.01-.854-.519-.854-.529.854-.529.854l.02,4.637-2.238.01-.039-5.928Zm12.446-2.38L49.2,141.3l.043,9.686-2.22.009Z" transform="translate(-4.631 -76.487)"/>
  </g>
</svg>
