<svg xmlns="http://www.w3.org/2000/svg" width="162.049" height="22.654" viewBox="0 0 162.049 22.654">
  <defs>
    <style>
      .cls-1 {
        fill: #ebebeb;
        opacity: 0.28;
      }
    </style>
  </defs>
  <path id="wetransfer-3" class="cls-1" d="M11.742,22.671l-8.414-18A7.944,7.944,0,0,0,1.784,2.283a2.429,2.429,0,0,0-1.693-.67H.031V.755H12.178l-.015.859a2.124,2.124,0,0,0-1.257.368,1.146,1.146,0,0,0-.429.956,2.737,2.737,0,0,0,.082.632,4.372,4.372,0,0,0,.264.753l3.236,8.083L18.365.018l4.727,12.388,2.92-7.8a4.1,4.1,0,0,0,.188-.73,4.856,4.856,0,0,0,.068-.821,1.214,1.214,0,0,0-.451-1.016,2.559,2.559,0,0,0-1.37-.429V.755h6.217v.859a3.243,3.243,0,0,0-1.889.745,6.066,6.066,0,0,0-1.348,2.28L20.442,22.671,15.9,10.84Zm31.488-3.146a8.85,8.85,0,0,1-2.936,2.341,7.982,7.982,0,0,1-3.537.805,7.564,7.564,0,0,1-3.213-.693,7.587,7.587,0,0,1-3.921-4.328,8.329,8.329,0,0,1-.452-2.777,9.1,9.1,0,0,1,.437-2.86,8.575,8.575,0,0,1,1.325-2.5,7.053,7.053,0,0,1,2.6-2.123,7.381,7.381,0,0,1,3.319-.813,6.264,6.264,0,0,1,4.689,1.791,6.57,6.57,0,0,1,1.753,4.8H34.574a6.624,6.624,0,0,0,1.746,4.455A5.257,5.257,0,0,0,40.309,19.4a3.9,3.9,0,0,0,1.611-.323,3.941,3.941,0,0,0,1.309-.971Zm-8.685-7.421h1.384a5.219,5.219,0,0,0,2.514-.355,1.607,1.607,0,0,0,.467-1.347,3.444,3.444,0,0,0-.481-2.01,1.679,1.679,0,0,0-1.461-.669,1.959,1.959,0,0,0-1.836,1.046,7.128,7.128,0,0,0-.587,3.334ZM49.127,2.139a5.8,5.8,0,0,0-2.973,1.43A8.693,8.693,0,0,0,44.07,6.73l-.678-.241L44.6.2a3.293,3.293,0,0,0,1.1.414,7.893,7.893,0,0,0,1.61.142h10.4A7.7,7.7,0,0,0,59.3.613,3.292,3.292,0,0,0,60.387.2L61.621,6.49l-.677.241a8.921,8.921,0,0,0-2.108-3.183A5.67,5.67,0,0,0,55.886,2.14V18.517a3.038,3.038,0,0,0,.5,2.017,2.8,2.8,0,0,0,1.9.632v.858H46.689v-.858a2.861,2.861,0,0,0,1.934-.64,3.011,3.011,0,0,0,.5-2.009ZM68.678,9.108a6.168,6.168,0,0,1,1.633-1.9A3.178,3.178,0,0,1,72.2,6.58a2.448,2.448,0,0,1,1.791.662,2.332,2.332,0,0,1,.678,1.747,2.068,2.068,0,0,1-.565,1.519,2.007,2.007,0,0,1-1.5.573,2.438,2.438,0,0,1-1.618-.677q-.776-.677-.986-.677-.5,0-.708.662a8.914,8.914,0,0,0-.211,2.363v6.217a2.447,2.447,0,0,0,.474,1.686,2.042,2.042,0,0,0,1.558.512h.09v.859h-9.86v-.858h.09a1.775,1.775,0,0,0,1.422-.5,2.625,2.625,0,0,0,.429-1.693V13.293a2.413,2.413,0,0,0-.181-1.069,1.957,1.957,0,0,0-.677-.677l-1.882-1.325q1.475-.512,3.4-1.408t4.727-2.356ZM82.9,13.142a4.127,4.127,0,0,0-2.062,1.709,5.4,5.4,0,0,0-.708,2.852,2.715,2.715,0,0,0,.384,1.535,1.161,1.161,0,0,0,1,.573,1.094,1.094,0,0,0,1.091-.633,9.933,9.933,0,0,0,.294-3.161Zm.286,6.939a8.14,8.14,0,0,1-2.4,1.949,5.78,5.78,0,0,1-2.657.64,4.291,4.291,0,0,1-3-1.046,3.464,3.464,0,0,1-1.152-2.687,4.267,4.267,0,0,1,1.754-3.379,29.573,29.573,0,0,1,7.172-3.53V10.96a5.024,5.024,0,0,0-.429-2.416,1.5,1.5,0,0,0-1.407-.73,1.9,1.9,0,0,0-1.325.474,1.526,1.526,0,0,0-.527,1.182q0,.375.03.881c.02.335.03.549.03.639a2.527,2.527,0,0,1-.609,1.769,2.082,2.082,0,0,1-1.618.67,1.951,1.951,0,0,1-1.475-.58,2.112,2.112,0,0,1-.557-1.527,4.009,4.009,0,0,1,1.942-3.395,8.584,8.584,0,0,1,5-1.347,10.346,10.346,0,0,1,3.108.437,5.848,5.848,0,0,1,2.28,1.264,3.781,3.781,0,0,1,1.024,1.581,9.188,9.188,0,0,1,.3,2.725v4.289a8.124,8.124,0,0,0,.279,2.544c.185.5.484.753.9.753a.662.662,0,0,0,.271-.06,1.337,1.337,0,0,0,.286-.181v.978A3.973,3.973,0,0,1,88.839,22.1a5.183,5.183,0,0,1-2.115.422A3.816,3.816,0,0,1,84.5,21.9a3.558,3.558,0,0,1-1.317-1.822Zm15.2-1.113a2.633,2.633,0,0,0,.413,1.663,1.765,1.765,0,0,0,1.378.534v.859H90.65v-.858h.09a1.775,1.775,0,0,0,1.422-.5,2.62,2.62,0,0,0,.429-1.693V13.293a2.413,2.413,0,0,0-.181-1.069,1.97,1.97,0,0,0-.677-.677l-1.882-1.325q1.965-.718,3.861-1.61,2.114-1,4.147-2.153V9.019a5.725,5.725,0,0,1,4.817-2.408,4.894,4.894,0,0,1,3.68,1.257,5.338,5.338,0,0,1,1.211,3.831v7.27A2.625,2.625,0,0,0,108,20.662a1.777,1.777,0,0,0,1.422.5h.09v.858h-7.736V11.849a4.541,4.541,0,0,0-.4-2.258,1.467,1.467,0,0,0-1.347-.633,1.341,1.341,0,0,0-1.265.655,4.793,4.793,0,0,0-.377,2.236Zm11.633,2.438V16.469h.782a8.056,8.056,0,0,0,2.077,3.785,4.607,4.607,0,0,0,3.282,1.332,2.373,2.373,0,0,0,1.566-.466,1.615,1.615,0,0,0,.557-1.31q0-1.656-3.252-2.98l-.2-.076a10.919,10.919,0,0,1-3.793-2.19,3.809,3.809,0,0,1-.933-2.657,4.666,4.666,0,0,1,1.821-3.861,7.758,7.758,0,0,1,4.937-1.436,14.78,14.78,0,0,1,2.408.2,19.773,19.773,0,0,1,2.529.595v4.11h-.752a9.3,9.3,0,0,0-2.048-2.951,3.513,3.513,0,0,0-2.347-.873,2.519,2.519,0,0,0-1.611.49,1.531,1.531,0,0,0-.617,1.257q0,1.28,3.326,2.62c.181.07.316.125.406.165a11.308,11.308,0,0,1,3.914,2.243,3.909,3.909,0,0,1,.888,2.679,4.9,4.9,0,0,1-1.889,3.989,7.545,7.545,0,0,1-4.915,1.535,14.968,14.968,0,0,1-3.011-.316,18.8,18.8,0,0,1-3.13-.949Zm21.4-2.438a2.581,2.581,0,0,0,.437,1.7,1.881,1.881,0,0,0,1.475.5h.211v.859h-9.86v-.858h.09a1.777,1.777,0,0,0,1.422-.5,2.621,2.621,0,0,0,.429-1.693V8.4h-1.475V7.559a9.268,9.268,0,0,0,1.776-2.3q.573-.918.9-1.384a8.383,8.383,0,0,1,2.686-2.507,6.442,6.442,0,0,1,3.259-.9,4.754,4.754,0,0,1,2.973.881A2.7,2.7,0,0,1,136.9,3.585a1.921,1.921,0,0,1-.573,1.453,2.1,2.1,0,0,1-1.519.549,2.139,2.139,0,0,1-1.235-.338A3.821,3.821,0,0,1,132.537,3.9a4.542,4.542,0,0,0-.948-1.28,1.49,1.49,0,0,0-.934-.3,1.326,1.326,0,0,0-.993.369,1.345,1.345,0,0,0-.362.986,3.062,3.062,0,0,0,.888,1.723,5.908,5.908,0,0,1,1.144,1.859h2.829V8.4h-2.739Zm16.676.557a8.85,8.85,0,0,1-2.936,2.341,7.982,7.982,0,0,1-3.537.805,7.564,7.564,0,0,1-3.213-.693,7.587,7.587,0,0,1-3.921-4.328,8.329,8.329,0,0,1-.452-2.777,9.1,9.1,0,0,1,.437-2.86,8.575,8.575,0,0,1,1.325-2.5,7.053,7.053,0,0,1,2.6-2.123,7.381,7.381,0,0,1,3.319-.813,6.264,6.264,0,0,1,4.689,1.791,6.57,6.57,0,0,1,1.753,4.8h-8.715a6.624,6.624,0,0,0,1.746,4.455,5.257,5.257,0,0,0,3.988,1.776,3.893,3.893,0,0,0,1.61-.323,3.941,3.941,0,0,0,1.31-.971ZM139.413,12.1H140.8a5.219,5.219,0,0,0,2.514-.355,1.607,1.607,0,0,0,.467-1.347,3.443,3.443,0,0,0-.481-2.01,1.68,1.68,0,0,0-1.461-.669A1.961,1.961,0,0,0,140,8.77a7.119,7.119,0,0,0-.587,3.334Zm16.676-3a6.176,6.176,0,0,1,1.632-1.9,3.18,3.18,0,0,1,1.889-.632,2.449,2.449,0,0,1,1.791.662,2.332,2.332,0,0,1,.678,1.747,2.068,2.068,0,0,1-.565,1.519,2.007,2.007,0,0,1-1.5.573A2.44,2.44,0,0,1,158.4,10.4q-.775-.677-.986-.677-.5,0-.708.662a8.915,8.915,0,0,0-.211,2.363v6.217a2.443,2.443,0,0,0,.474,1.686,2.041,2.041,0,0,0,1.558.512h.09v.859h-9.86v-.858h.09a1.777,1.777,0,0,0,1.422-.5,2.62,2.62,0,0,0,.429-1.693V13.293a2.413,2.413,0,0,0-.181-1.069,1.957,1.957,0,0,0-.677-.677l-1.882-1.325q1.475-.512,3.4-1.408t4.727-2.356Z" transform="translate(-0.031 -0.018)"/>
</svg>
