<svg xmlns="http://www.w3.org/2000/svg" viewBox="0 0 95.9238 49.9805"><defs><style>.cls-1{fill:#321c1c;}.cls-2{fill:#f49e00;}</style></defs><g id="Laag_2" data-name="Laag 2"><path class="cls-1" d="M34.8306,3.6612h1.6162V6.8824l3.0683-3.2212h2.0205L38.4014,6.8389l3.4179,4.6738H39.8428L37.2876,7.92l-.8408.83v2.7627H34.8306Z"/><path class="cls-1" d="M43.8286,11.72A1.6354,1.6354,0,0,1,42.07,9.8746c0-1.1358.6118-1.6377,1.9658-1.8453,1.2012-.186,1.6162-.0986,1.6162-.6552,0-.4805-.2836-.6553-.95-.6553-.6333,0-.9716.2622-.9716.7207v.0874H42.2778V7.4175c0-1.1792.8736-1.9111,2.37-1.9111,1.6381,0,2.5117.59,2.5117,1.6382v3.2978c0,.4258.0659.6773.3276.8081v.2622H45.8706a1.6787,1.6787,0,0,1-.1748-.7207A2.0876,2.0876,0,0,1,43.8286,11.72Zm.4585-2.6646c-.4912.1421-.7314.3276-.7314.7754a.6842.6842,0,0,0,.7646.6987,1.2367,1.2367,0,0,0,1.354-1.3213V8.6626A6.865,6.865,0,0,1,44.2871,9.0557Z"/><path class="cls-1" d="M48.5132,5.7139h1.4746v.6445A1.976,1.976,0,0,1,51.5933,5.55a1.7509,1.7509,0,0,1,1.6152.8516A1.955,1.955,0,0,1,54.8579,5.55a1.77,1.77,0,0,1,1.9,1.9112v4.0512H55.23V7.7779a.799.799,0,0,0-.8633-.8843.9762.9762,0,0,0-.9824,1.103v3.5161H51.8657V7.7891a.7913.7913,0,0,0-.8408-.8955.98.98,0,0,0-.9824,1.1138v3.5053H48.5132Z"/><path class="cls-1" d="M63.2124,9.7544A2.5938,2.5938,0,0,1,60.5249,11.71c-1.6484,0-2.73-1.18-2.73-3.1343,0-1.9,1.0381-3.0688,2.708-3.0688,1.77,0,2.7852,1.1143,2.7852,3.1123,0,.1313,0,.2622-.0117.4043h-3.876c.0439.9062.4482,1.376,1.2012,1.376a1.0307,1.0307,0,0,0,1.06-.6446Zm-1.5293-1.747c-.0215-.7862-.4258-1.2012-1.1465-1.2012-.666,0-1.07.415-1.1357,1.2012Z"/><path class="cls-1" d="M64.3149,5.7139h1.4414v.9937A1.7774,1.7774,0,0,1,67.4272,5.55a1.62,1.62,0,0,1,.2286.0108V7.1338h-.5127a1.148,1.148,0,0,0-1.2774,1.31v3.0688H64.3149Z"/><path class="cls-1" d="M70.9546,5.7139h1.7139l1.19,4.1607L75.06,5.7139h1.6386l-2.0752,5.7988h-1.583Z"/><path class="cls-1" d="M78.8491,11.72a1.6353,1.6353,0,0,1-1.7578-1.8457c0-1.1358.6113-1.6377,1.9653-1.8453,1.2012-.186,1.6172-.0986,1.6172-.6552,0-.4805-.2851-.6553-.9511-.6553-.6329,0-.9712.2622-.9712.7207v.0874H77.2983V7.4175c0-1.1792.8741-1.9111,2.37-1.9111,1.6386,0,2.5117.59,2.5117,1.6382v3.2978c0,.4258.0664.6773.3281.8081v.2622H80.8926a1.679,1.679,0,0,1-.1758-.7207A2.0879,2.0879,0,0,1,78.8491,11.72Zm.4595-2.6646c-.4917.1421-.7319.3276-.7319.7754a.6839.6839,0,0,0,.7651.6987,1.2368,1.2368,0,0,0,1.3535-1.3213V8.6626A6.8624,6.8624,0,0,1,79.3086,9.0557Z"/><path class="cls-1" d="M83.5352,5.7139h1.5175v.688a2.1263,2.1263,0,0,1,1.7578-.8408c1.2774,0,1.91.666,1.91,1.9985v3.9531H87.17V8.0074c0-.7862-.2285-1.1577-.8945-1.1577a1.1211,1.1211,0,0,0-1.19,1.2231v3.44H83.5352Z"/><path class="cls-1" d="M34.832,15.3248h1.6162v3.2211l3.0684-3.2211h2.0205l-3.1343,3.1777,3.418,4.6738H39.8442l-2.5551-3.5928-.8409.83v2.7627H34.832Z"/><path class="cls-1" d="M44.8179,17.17a2.7889,2.7889,0,0,1,2.9375,3.1015,2.9418,2.9418,0,1,1-5.875,0A2.7889,2.7889,0,0,1,44.8179,17.17Zm0,4.9033c.8628,0,1.354-.6441,1.354-1.8018s-.4912-1.791-1.354-1.791-1.3653.6333-1.3653,1.791S43.9551,22.0733,44.8179,22.0733Z"/><path class="cls-1" d="M51.4565,17.17a2.7887,2.7887,0,0,1,2.9375,3.1015,2.9416,2.9416,0,1,1-5.8745,0A2.7888,2.7888,0,0,1,51.4565,17.17Zm0,4.9033c.8633,0,1.3555-.6441,1.3555-1.8018s-.4922-1.791-1.3555-1.791-1.3642.6333-1.3642,1.791S50.5942,22.0733,51.4565,22.0733Z"/><path class="cls-1" d="M55.4858,17.3775H56.96v.7866a1.9159,1.9159,0,0,1,1.7256-.9829c1.4092,0,2.4034,1.2119,2.4034,3.0684,0,1.9111-1.0274,3.1235-2.3809,3.1235a1.9331,1.9331,0,0,1-1.7148-.9175v3.0469H55.4858ZM58.26,18.5132c-.8194,0-1.2666.6118-1.2666,1.8018,0,1.103.48,1.7148,1.2988,1.7148.7656,0,1.2558-.6333,1.2558-1.7148C59.5483,19.1358,59.09,18.5132,58.26,18.5132Z"/><path class="cls-1" d="M62.1812,15.3248H63.72V18.022a2.1041,2.1041,0,0,1,1.7256-.7973,1.9842,1.9842,0,0,1,1.5947.6772,2.1277,2.1277,0,0,1,.3164,1.4087v3.8657h-1.54V20.1407c0-1.07-.0225-1.6275-.9063-1.6275a1.1219,1.1219,0,0,0-1.19,1.2232v3.44h-1.539Z"/><path class="cls-1" d="M70.1733,23.3838a1.6353,1.6353,0,0,1-1.7578-1.8457c0-1.1357.6114-1.6377,1.9658-1.8452,1.2012-.186,1.6163-.0986,1.6163-.6553,0-.48-.2832-.6552-.9493-.6552-.6347,0-.9726.2622-.9726.7207v.0874H68.6235v-.1094c0-1.1792.8741-1.9111,2.37-1.9111,1.6367,0,2.5117.59,2.5117,1.6382V22.106c0,.4258.0644.6772.3271.8081v.2622H72.2163a1.6644,1.6644,0,0,1-.1748-.7207A2.0882,2.0882,0,0,1,70.1733,23.3838Zm.459-2.6645c-.4912.1421-.7314.3276-.7314.7754a.6842.6842,0,0,0,.7646.6987,1.2363,1.2363,0,0,0,1.3535-1.3213v-.5459A6.8624,6.8624,0,0,1,70.6323,20.7193Z"/><path class="cls-1" d="M74.8589,17.3775h1.5176v.688a2.131,2.131,0,0,1,1.7578-.8408c1.2778,0,1.9126.666,1.9126,1.9985v3.9531H78.4956V19.6709c0-.7861-.23-1.1577-.8965-1.1577A1.1211,1.1211,0,0,0,76.41,19.7364v3.44H74.8589Z"/><path class="cls-1" d="M86.707,23.1763H85.2324V22.39a1.931,1.931,0,0,1-1.7363.9829c-1.4082,0-2.4023-1.2124-2.4023-3.0689,0-1.9111,1.0273-3.123,2.3808-3.123a1.9534,1.9534,0,0,1,1.7266.917V15.3248H86.707Zm-2.7734-1.1357c.8184,0,1.2676-.6114,1.2676-1.8018,0-1.103-.4805-1.7143-1.3008-1.7143-.7637,0-1.2559.6333-1.2559,1.7143C82.6445,21.418,83.1035,22.0406,83.9336,22.0406Z"/><path class="cls-1" d="M93.2148,21.418a2.593,2.593,0,0,1-2.6855,1.9551c-1.6484,0-2.7305-1.18-2.7305-3.1343,0-1.9,1.0371-3.0688,2.709-3.0688,1.7695,0,2.7852,1.1142,2.7852,3.1123,0,.1313,0,.2622-.0117.4043h-3.877c.043.9062.4473,1.3759,1.2012,1.3759a1.0288,1.0288,0,0,0,1.0586-.6445Zm-1.5273-1.7471c-.0234-.7861-.4258-1.2011-1.1465-1.2011-.668,0-1.07.415-1.1367,1.2011Z"/><path class="cls-1" d="M94.373,15.3248h1.5508v7.8515H94.373Z"/><polygon class="cls-2" points="7.046 34.411 14.618 26.801 8.515 26.801 1.1 34.14 1.1 23.177 5.501 23.177 11.953 3.629 6.969 3.629 3.067 17.15 2.99 17.15 1.1 10.597 1.1 0 0 0 0 49.981 1.1 49.981 1.1 40.204 3.764 37.579 9.597 46.349 15.353 46.349 7.046 34.411"/><path class="cls-2" d="M28.1787,0V4.8887a10.3138,10.3138,0,0,0-5.9766-1.7226c-6.3364,0-10.0063,4.4038-10.0063,10.2368,0,5.8349,3.67,10.2373,10.0063,10.2373a10.3131,10.3131,0,0,0,5.9766-1.7227v4.646a18.6621,18.6621,0,0,0-3.1318-.2265c-4.2871,0-8.3438,1.7773-8.3438,6.375l4.7134.1933c0-2.125.8892-2.9375,3.63-2.9375a4.3867,4.3867,0,0,1,3.1318.8985v2.3369c-1.2471.3525-3.0664.6787-4.5215.9765l-1.9707.3858c-2.8969.58-5.9492,2.2793-5.9492,6.1035,0,3.7871,2.9356,6.1436,6.6455,6.1436a9.8478,9.8478,0,0,0,5.7959-1.8047v4.9726h1.0947V0ZM22.2021,19.314c-3.3608,0-5.0605-2.8574-5.0605-5.9111,0-3.0508,1.7-5.9112,5.0605-5.9112s5.0616,2.86,5.0616,5.9112C27.2637,16.4566,25.5625,19.314,22.2021,19.314Zm1.5323,23.6353c-1.6992,0-3.0528-.9659-3.0528-2.4346,0-1.8545,1.4688-2.3574,3.2461-2.7051l2.5879-.54a9.7162,9.7162,0,0,0,1.6631-.4453v4.2988A5.6988,5.6988,0,0,1,23.7344,42.9493Z"/></g></svg>