<svg class="socials twitter" xmlns="http://www.w3.org/2000/svg" width="38" height="30.881" viewBox="0 0 38 30.881">
  <path id="iconmonstr-twitter-1-2" data-name="iconmonstr-twitter-1" class="cls-1" d="M38,5.9a15.565,15.565,0,0,1-4.478,1.227A7.809,7.809,0,0,0,36.95,2.818,15.617,15.617,0,0,1,32,4.71a7.8,7.8,0,0,0-13.286,7.109A22.132,22.132,0,0,1,2.646,3.675,7.806,7.806,0,0,0,5.057,14.083a7.763,7.763,0,0,1-3.529-.975,7.8,7.8,0,0,0,6.253,7.743,7.814,7.814,0,0,1-3.521.133A7.8,7.8,0,0,0,11.543,26.4,15.675,15.675,0,0,1,0,29.627a22.07,22.07,0,0,0,11.951,3.5C26.426,33.129,34.6,20.9,34.11,9.94A15.872,15.872,0,0,0,38,5.9Z" transform="translate(0 -2.248)"/>
</svg>
