<svg xmlns="http://www.w3.org/2000/svg" viewBox="0 0 412.2575 94.2187"><defs><style>.cls-1{fill:#e6007e;}.cls-2{fill:#211452;}</style></defs><g id="Layer_2" data-name="Layer 2"><g id="Layer_1-2" data-name="Layer 1"><path class="cls-1" d="M36.0905,0h15.79V72.009h-15.79V67.0633a16.4771,16.4771,0,0,1-13.6214,6.3334,21.6349,21.6349,0,0,1-8.9352-1.8221A22.0647,22.0647,0,0,1,6.4193,66.543a22.9971,22.9971,0,0,1-4.7278-7.5475,26.6137,26.6137,0,0,1-.0874-18.4367A22.6975,22.6975,0,0,1,6.16,33.0543a21.5517,21.5517,0,0,1,16.1357-6.94,18.13,18.13,0,0,1,13.7949,5.8129Zm-19.78,49.6259a10.3684,10.3684,0,0,0,2.9057,7.2866,9.5135,9.5135,0,0,0,3.21,2.1689,10.3152,10.3152,0,0,0,4.0339.7813,10.0992,10.0992,0,0,0,3.948-.7813,9.513,9.513,0,0,0,3.21-2.1689,11.2029,11.2029,0,0,0,2.1689-3.21,9.3559,9.3559,0,0,0,.8243-3.9034,9.6606,9.6606,0,0,0-.8243-3.948,11.0479,11.0479,0,0,0-2.1689-3.2534,9.548,9.548,0,0,0-3.21-2.1689,10.3713,10.3713,0,0,0-7.8944,0,9.5388,9.5388,0,0,0-3.2112,2.1689,11.4238,11.4238,0,0,0-2.1689,3.1659A9.0716,9.0716,0,0,0,16.3107,49.6259Z"/><path class="cls-1" d="M57.3454,49.365a21.6505,21.6505,0,0,1,1.9954-9.24,22.6878,22.6878,0,0,1,5.5521-7.4608,26.4056,26.4056,0,0,1,8.4592-4.9887,30.5248,30.5248,0,0,1,10.7157-1.822A30.9664,30.9664,0,0,1,94.6945,27.632a26.3351,26.3351,0,0,1,8.5023,4.9457,22.2262,22.2262,0,0,1,5.5965,7.5475,23.09,23.09,0,0,1,1.9955,9.6742,22.66,22.66,0,0,1-2.0385,9.6734,22.9628,22.9628,0,0,1-5.5965,7.5475,25.0358,25.0358,0,0,1-8.5452,4.9012,32.6559,32.6559,0,0,1-10.8017,1.7361,31.245,31.245,0,0,1-10.5852-1.7361A24.4165,24.4165,0,0,1,64.85,66.9774a22.9231,22.9231,0,0,1-5.5091-7.678A24.09,24.09,0,0,1,57.3454,49.365Zm16.5716.1734a10.0587,10.0587,0,0,0,.8243,4.1215A10.9476,10.9476,0,0,0,76.91,56.9125a9.483,9.483,0,0,0,3.21,2.1689,10.3615,10.3615,0,0,0,7.8944,0,9.513,9.513,0,0,0,3.21-2.1689,11.0054,11.0054,0,0,0,2.169-3.2526,9.8668,9.8668,0,0,0,.8242-4.034,9.6617,9.6617,0,0,0-.8242-3.9479,11.0469,11.0469,0,0,0-2.169-3.2534,9.5468,9.5468,0,0,0-3.21-2.169,10.3615,10.3615,0,0,0-7.8944,0,9.5165,9.5165,0,0,0-3.21,2.169,11.1457,11.1457,0,0,0-2.1689,3.21A9.3329,9.3329,0,0,0,73.917,49.5384Z"/><path class="cls-1" d="M135.6018,40.6026V72.009H119.8974V40.6026h-5.2051v-13.1h5.2051V14.141h15.7044V27.5023h8.9351v13.1Z"/><path class="cls-1" d="M180.368,38.954a18.3616,18.3616,0,0,0-8.5023-2.2557,6.3924,6.3924,0,0,0-3.5151.8681,2.6662,2.6662,0,0,0-1.3447,2.3423,3.05,3.05,0,0,0,.218,1.258,2.2262,2.2262,0,0,0,.9532.911,8.2126,8.2126,0,0,0,2.169.78q1.4321.3477,3.7745.8673,6.5067,1.3032,9.7164,4.6418a11.83,11.83,0,0,1,3.2112,8.5452,15.4887,15.4887,0,0,1-1.5626,7.0287,14.94,14.94,0,0,1-4.3379,5.2481,20.5993,20.5993,0,0,1-6.68,3.2971,29.7777,29.7777,0,0,1-8.5882,1.1712,34.886,34.886,0,0,1-17.7859-5.1192l5.7255-11.104q6.5921,4.5105,12.4932,4.5113a6.147,6.147,0,0,0,3.5581-.9548,2.8547,2.8547,0,0,0,1.3876-2.43,4.0721,4.0721,0,0,0-.2164-1.4306,2.3545,2.3545,0,0,0-.9118-1.0423,7.3477,7.3477,0,0,0-2.0384-.8673q-1.347-.3891-3.5136-.8242-7.2873-1.4736-10.1938-4.3809-2.9081-2.9057-2.9073-8.0249a15.7728,15.7728,0,0,1,1.3892-6.7239,13.9128,13.9128,0,0,1,3.9894-5.0755,18.7254,18.7254,0,0,1,6.29-3.21,28,28,0,0,1,8.1983-1.1274,37.2027,37.2027,0,0,1,14.3152,2.8627Z"/><path class="cls-1" d="M230.4022,66.7978a22.8231,22.8231,0,0,1-15.8441,6.0585q-9.15,0-14.72-5.0623a16.9976,16.9976,0,0,1-5.5705-13.1963,15.822,15.822,0,0,1,4.0247-10.2935,25.6186,25.6186,0,0,1,10.7173-7.414q-4.1514-6.8625-5.0194-9.9336a20.3688,20.3688,0,0,1-.8688-5.4861,13.3907,13.3907,0,0,1,4.0876-9.701,14.507,14.507,0,0,1,10.8232-4.1514q9.3618,0,13.4295,5.846a9.1993,9.1993,0,0,1,1.6517,5.4645q0,9.5322-13.5125,18.5971,6.2259,9.9132,13.2162,19.0215a43.3678,43.3678,0,0,0,6.1-13.26,7.46,7.46,0,0,0,.2548-2.0545,3.3375,3.3375,0,0,0-1.3354-2.3724q-1.3331-1.2075-4.892-1.3768l-.2962-4.1514H254.549l.2962,4.1514q-5.7608.4674-8.3027,4.1091a85.1618,85.1618,0,0,0-4.1736,7.71,96.5924,96.5924,0,0,1-6.4177,11.058q4.872,5.6342,7.965,7.1161a6.8906,6.8906,0,0,0,2.9656.6355,5.9207,5.9207,0,0,0,5.0823-2.2871,4.7752,4.7752,0,0,1-3.0285-1.7591,5.5516,5.5516,0,0,1-1.1221-3.5581,5.1493,5.1493,0,0,1,1.8-3.8328,5.3143,5.3143,0,0,1,3.6011-1.6946,6.6848,6.6848,0,0,1,2.8581.508,5.0035,5.0035,0,0,1,3.136,4.8291q0,5.9725-3.9618,9.2559a13.9468,13.9468,0,0,1-9.1715,3.2833A21.6554,21.6554,0,0,1,230.4022,66.7978ZM211.4667,40.9149q-7.4577,4.6176-7.457,13.0059a12.9446,12.9446,0,0,0,3.5167,9.4463,12.063,12.063,0,0,0,9.0226,3.6011,16.4651,16.4651,0,0,0,10.464-3.9818A229.9055,229.9055,0,0,1,211.4667,40.9149Zm5.5489-7.6672a26.4292,26.4292,0,0,0,6.1-6.4185,12.6383,12.6383,0,0,0,1.8221-6.714,7.9077,7.9077,0,0,0-2.2027-5.846,7.0319,7.0319,0,0,0-5.1269-2.2027,4.7346,4.7346,0,0,0-4.3624,2.3086,10.7353,10.7353,0,0,0-1.3984,5.6549,16.3254,16.3254,0,0,0,1.9694,7.2658Q215.7877,31.2146,217.0156,33.2477Z"/><path class="cls-2" d="M281.689,94.2187H265.9861V27.5023H281.689v4.9449q5.0308-6.3318,13.7089-6.3333a21.3188,21.3188,0,0,1,8.8906,1.865,22.6013,22.6013,0,0,1,7.1592,5.0754,23.0445,23.0445,0,0,1,4.7277,7.5483,25.3448,25.3448,0,0,1,1.6916,9.2828,24.657,24.657,0,0,1-1.6916,9.196,23.5926,23.5926,0,0,1-4.6848,7.4616A21.4717,21.4717,0,0,1,295.57,73.3967a18.5372,18.5372,0,0,1-13.8808-5.7255ZM301.47,49.8854a10.6423,10.6423,0,0,0-.7368-3.9465,9.5414,9.5414,0,0,0-2.1275-3.2541,10.6746,10.6746,0,0,0-3.2511-2.2127,10.23,10.23,0,0,0-7.94-.043,9.6641,9.6641,0,0,0-3.1667,2.1689,11.0479,11.0479,0,0,0-2.1689,3.2534,9.6606,9.6606,0,0,0-.8243,3.948,9.8048,9.8048,0,0,0,.7813,3.9034,9.65,9.65,0,0,0,2.1689,3.1667,10.9936,10.9936,0,0,0,3.2526,2.1689,9.6365,9.6365,0,0,0,3.948.8243,9.7745,9.7745,0,0,0,3.9035-.7813,9.62,9.62,0,0,0,3.1682-2.1689,11.2,11.2,0,0,0,2.1674-3.21A9.1571,9.1571,0,0,0,301.47,49.8854Z"/><path class="cls-2" d="M342.5065,27.5023V72.009H326.8021V27.5023Z"/><path class="cls-2" d="M370.0932,47.89,352.0479,27.5023H372.523l7.635,9.196,7.8085-9.196H408.44L389.9619,47.89,412.2575,72.009h-20.822l-11.365-13.187L368.618,72.009H347.8835Z"/><circle class="cls-1" cx="84.2546" cy="49.8013" r="5.1913"/><rect class="cls-2" x="326.9196" width="15.7044" height="15.7044"/></g></g></svg>