<svg xmlns="http://www.w3.org/2000/svg" width="177.979" height="40.219" viewBox="0 0 177.979 40.219"><defs><style>.a{fill:#e0f;}.b{fill:#5400ff;}</style></defs><g transform="translate(-214.833 -262.239)"><g transform="translate(214.833 262.239)"><path class="a" d="M230.239,262.239h6.74v30.738h-6.74v-2.111a7.034,7.034,0,0,1-5.815,2.7,9.241,9.241,0,0,1-3.814-.778,9.423,9.423,0,0,1-3.037-2.148,9.809,9.809,0,0,1-2.018-3.222,11.359,11.359,0,0,1-.038-7.87,9.692,9.692,0,0,1,1.945-3.2,9.2,9.2,0,0,1,6.888-2.962,7.739,7.739,0,0,1,5.889,2.481ZM221.8,283.423a4.427,4.427,0,0,0,1.24,3.111,4.057,4.057,0,0,0,1.37.925,4.4,4.4,0,0,0,1.722.334,4.309,4.309,0,0,0,1.685-.334,4.055,4.055,0,0,0,1.37-.925,4.8,4.8,0,0,0,.926-1.37,4,4,0,0,0,.352-1.667,4.129,4.129,0,0,0-.352-1.685,4.727,4.727,0,0,0-.926-1.389,4.068,4.068,0,0,0-1.37-.926,4.429,4.429,0,0,0-3.37,0,4.065,4.065,0,0,0-1.371.926,4.87,4.87,0,0,0-.926,1.351A3.869,3.869,0,0,0,221.8,283.423Z" transform="translate(-214.833 -262.239)"/><path class="a" d="M272.179,298.129a9.241,9.241,0,0,1,.852-3.944A9.688,9.688,0,0,1,275.4,291a11.277,11.277,0,0,1,3.611-2.129,13.026,13.026,0,0,1,4.574-.778,13.222,13.222,0,0,1,4.536.759,11.243,11.243,0,0,1,3.629,2.111,9.492,9.492,0,0,1,2.389,3.222,9.858,9.858,0,0,1,.852,4.13,9.676,9.676,0,0,1-.87,4.129,9.8,9.8,0,0,1-2.389,3.222,10.68,10.68,0,0,1-3.648,2.092,13.943,13.943,0,0,1-4.611.741,13.343,13.343,0,0,1-4.518-.741,10.425,10.425,0,0,1-3.574-2.111,9.779,9.779,0,0,1-2.352-3.277A10.28,10.28,0,0,1,272.179,298.129Zm7.074.074a4.294,4.294,0,0,0,.352,1.76,4.678,4.678,0,0,0,.926,1.389,4.041,4.041,0,0,0,1.37.925,4.42,4.42,0,0,0,3.37,0,4.057,4.057,0,0,0,1.37-.925,4.694,4.694,0,0,0,.926-1.389,4.208,4.208,0,0,0,.352-1.722,4.122,4.122,0,0,0-.352-1.685,4.7,4.7,0,0,0-.926-1.389,4.071,4.071,0,0,0-1.37-.926,4.42,4.42,0,0,0-3.37,0,4.055,4.055,0,0,0-1.37.926,4.75,4.75,0,0,0-.926,1.37A3.984,3.984,0,0,0,279.253,298.2Z" transform="translate(-247.453 -277.057)"/><path class="a" d="M338.451,287.676v13.406h-6.7V287.676h-2.222v-5.592h2.222v-5.7h6.7v5.7h3.814v5.592Z" transform="translate(-280.148 -270.344)"/><path class="a" d="M376.7,293.685a7.834,7.834,0,0,0-3.629-.963,2.729,2.729,0,0,0-1.5.371,1.139,1.139,0,0,0-.574,1,1.3,1.3,0,0,0,.093.537.954.954,0,0,0,.407.389,3.513,3.513,0,0,0,.926.333q.612.149,1.611.37a7.7,7.7,0,0,1,4.147,1.982,5.051,5.051,0,0,1,1.371,3.648,6.612,6.612,0,0,1-.667,3,6.374,6.374,0,0,1-1.852,2.24A8.785,8.785,0,0,1,374.185,308a12.7,12.7,0,0,1-3.666.5,14.891,14.891,0,0,1-7.592-2.186l2.444-4.74A9.55,9.55,0,0,0,370.7,303.5a2.627,2.627,0,0,0,1.519-.408,1.219,1.219,0,0,0,.592-1.037,1.74,1.74,0,0,0-.092-.611,1.008,1.008,0,0,0-.389-.445,3.143,3.143,0,0,0-.87-.37q-.575-.166-1.5-.352a8.582,8.582,0,0,1-4.351-1.87,4.625,4.625,0,0,1-1.241-3.426,6.732,6.732,0,0,1,.593-2.87,5.94,5.94,0,0,1,1.7-2.166,7.993,7.993,0,0,1,2.685-1.371,11.959,11.959,0,0,1,3.5-.481,15.885,15.885,0,0,1,6.111,1.222Z" transform="translate(-299.136 -277.057)"/><path class="b" d="M424.526,295.119a9.744,9.744,0,0,1-6.764,2.586,8.982,8.982,0,0,1-6.284-2.161,7.256,7.256,0,0,1-2.378-5.633,6.754,6.754,0,0,1,1.718-4.394,10.939,10.939,0,0,1,4.575-3.165,20.7,20.7,0,0,1-2.143-4.24,8.7,8.7,0,0,1-.371-2.342,5.717,5.717,0,0,1,1.745-4.141,6.193,6.193,0,0,1,4.62-1.772q4,0,5.733,2.5a3.928,3.928,0,0,1,.7,2.333q0,4.068-5.768,7.938,2.657,4.232,5.641,8.119a18.514,18.514,0,0,0,2.6-5.66,3.192,3.192,0,0,0,.109-.877,1.424,1.424,0,0,0-.57-1.013,3.419,3.419,0,0,0-2.088-.588l-.126-1.772h9.349l.127,1.772a4.49,4.49,0,0,0-3.544,1.754,36.342,36.342,0,0,0-1.782,3.291,41.218,41.218,0,0,1-2.739,4.72,12.382,12.382,0,0,0,3.4,3.038,2.938,2.938,0,0,0,1.266.271,2.527,2.527,0,0,0,2.169-.976,2.038,2.038,0,0,1-1.293-.751,2.371,2.371,0,0,1-.479-1.519,2.2,2.2,0,0,1,.768-1.636,2.27,2.27,0,0,1,1.537-.724,2.857,2.857,0,0,1,1.22.217,2.136,2.136,0,0,1,1.339,2.061,4.845,4.845,0,0,1-1.691,3.951,5.953,5.953,0,0,1-3.915,1.4A9.242,9.242,0,0,1,424.526,295.119Zm-8.083-11.049a6.192,6.192,0,0,0-3.183,5.552,5.526,5.526,0,0,0,1.5,4.032,5.148,5.148,0,0,0,3.851,1.537,7.028,7.028,0,0,0,4.467-1.7A98.109,98.109,0,0,1,416.443,284.07Zm2.369-3.273a11.28,11.28,0,0,0,2.6-2.74,5.4,5.4,0,0,0,.778-2.866,3.374,3.374,0,0,0-.94-2.5,3,3,0,0,0-2.189-.94,2.021,2.021,0,0,0-1.862.985,4.582,4.582,0,0,0-.6,2.414,6.972,6.972,0,0,0,.84,3.1Q418.287,279.929,418.811,280.8Z" transform="translate(-325.174 -266.605)"/><path class="b" d="M487.522,317.425h-6.7V288.945h6.7v2.111a7.074,7.074,0,0,1,5.852-2.7,9.1,9.1,0,0,1,3.8.8,9.65,9.65,0,0,1,3.056,2.166,9.841,9.841,0,0,1,2.018,3.222,10.822,10.822,0,0,1,.722,3.962,10.53,10.53,0,0,1-.722,3.925,10.07,10.07,0,0,1-2,3.185,9.164,9.164,0,0,1-6.8,2.926,7.913,7.913,0,0,1-5.925-2.444Zm8.444-18.925a4.544,4.544,0,0,0-.315-1.684,4.071,4.071,0,0,0-.908-1.389,4.552,4.552,0,0,0-1.388-.945,4.369,4.369,0,0,0-3.389-.018,4.125,4.125,0,0,0-1.352.926,4.727,4.727,0,0,0-.926,1.389,4.128,4.128,0,0,0-.352,1.685,4.19,4.19,0,0,0,.333,1.667,4.133,4.133,0,0,0,.926,1.352,4.685,4.685,0,0,0,1.389.925,4.106,4.106,0,0,0,1.685.352,4.17,4.17,0,0,0,1.666-.334,4.1,4.1,0,0,0,1.352-.925,4.787,4.787,0,0,0,.925-1.37A3.914,3.914,0,0,0,495.966,298.5Z" transform="translate(-365.278 -277.206)"/><path class="b" d="M548.339,289.741v19h-6.7v-19Z" transform="translate(-400.134 -278.001)"/><path class="b" d="M572.2,298.444l-7.7-8.7h8.74l3.259,3.925,3.333-3.925h8.739l-7.888,8.7,9.517,10.3h-8.888l-4.851-5.629-4.889,5.629h-8.851Z" transform="translate(-412.217 -278.001)"/></g><circle class="a" cx="2.216" cy="2.216" r="2.216" transform="translate(248.84 281.282)"/><rect class="b" width="6.704" height="6.704" transform="translate(356.384 262.239)"/></g></svg>