<svg id="iconmonstr-instagram-11" xmlns="http://www.w3.org/2000/svg" width="38.253" height="38.253" viewBox="0 0 38.253 38.253">
  <defs>
    <style>
      .cls-1 {
        fill: #ebebeb;
      }
    </style>
  </defs>
  <path id="iconmonstr-instagram-11-2" data-name="iconmonstr-instagram-11" class="cls-1" d="M19.126,3.448c5.107,0,5.712.019,7.73.112,5.183.236,7.6,2.7,7.84,7.84.092,2.016.11,2.622.11,7.729s-.019,5.712-.11,7.729c-.237,5.14-2.652,7.6-7.84,7.84-2.018.092-2.62.112-7.73.112s-5.712-.019-7.729-.112c-5.2-.237-7.6-2.708-7.84-7.842-.092-2.016-.112-2.62-.112-7.729s.021-5.711.112-7.729c.237-5.143,2.652-7.6,7.84-7.84,2.018-.091,2.622-.11,7.729-.11Zm0-3.448c-5.194,0-5.845.022-7.885.115C4.3.434.435,4.287.116,11.24.022,13.282,0,13.932,0,19.126s.022,5.846.115,7.886C.434,33.959,4.287,37.819,11.24,38.138c2.042.092,2.692.115,7.886.115s5.846-.022,7.886-.115c6.94-.319,10.81-4.173,11.124-11.125.094-2.04.116-2.692.116-7.886s-.022-5.845-.115-7.885C37.825,4.3,33.967.435,27.014.116,24.973.022,24.321,0,19.126,0Zm0,9.3a9.822,9.822,0,1,0,9.821,9.821A9.822,9.822,0,0,0,19.126,9.3Zm0,16.2A6.375,6.375,0,1,1,25.5,19.126,6.375,6.375,0,0,1,19.126,25.5ZM29.337,6.622a2.3,2.3,0,1,0,2.294,2.3A2.3,2.3,0,0,0,29.337,6.622Z"/>
</svg>
