<svg xmlns="http://www.w3.org/2000/svg" width="21.286" height="21.289" viewBox="0 0 21.286 21.289">
  <path id="iconmonstr-link-1" class="cls-1" d="M5.489,7.734A5.692,5.692,0,0,1,14.26,8.6L12.268,10.6a3,3,0,0,0-3.4-1.729,2.954,2.954,0,0,0-1.448.8L3.6,13.483a2.973,2.973,0,0,0,4.2,4.2l1.177-1.177a7.568,7.568,0,0,0,3.352.51l-2.6,2.6a5.7,5.7,0,0,1-8.065-8.065L5.489,7.734ZM11.552,1.67l-2.6,2.6a7.57,7.57,0,0,1,3.352.509L13.482,3.6a2.973,2.973,0,0,1,4.2,4.2l-3.819,3.819a2.978,2.978,0,0,1-4.2,0,3.164,3.164,0,0,1-.645-.932L7.027,12.683a5.356,5.356,0,0,0,.706.871,5.7,5.7,0,0,0,8.065,0l3.818-3.819A5.7,5.7,0,1,0,11.552,1.67Z" transform="translate(-0.001 0)"/>
</svg>
